<?xml version="1.0" encoding="UTF-8"?>
<svg width="479px" height="363px" viewBox="0 0 479 363" version="1.1" xmlns="http://www.w3.org/2000/svg" xmlns:xlink="http://www.w3.org/1999/xlink">
    <!-- Generator: Sketch 52.2 (67145) - http://www.bohemiancoding.com/sketch -->
    <title>Group 6</title>
    <desc>Created with Sketch.</desc>
    <defs>
        <polygon id="path-1" points="0 0.119742489 387.955587 0.119742489 387.955587 300 0 300"></polygon>
        <polygon id="path-3" points="0.1483125 0.139068293 29.950625 0.139068293 29.950625 38.9447024 0.1483125 38.9447024"></polygon>
        <polygon id="path-5" points="0.250349343 0.14008 21.7053913 0.14008 21.7053913 34 0.250349343 34"></polygon>
        <polygon id="path-7" points="0.199646578 0.338181818 7.78806251 0.338181818 7.78806251 7.9265716 0.199646578 7.9265716"></polygon>
        <polygon id="path-9" points="0.302585656 0.0978461538 38.7063811 0.0978461538 38.7063811 51.9790734 0.302585656 51.9790734"></polygon>
        <polygon id="path-11" points="0.219810033 0.157963235 10.8608486 0.157963235 10.8608486 21 0.219810033 21"></polygon>
    </defs>
    <g id="Hi-fi-mockups" stroke="none" stroke-width="1" fill="none" fill-rule="evenodd">
        <g id="Group-6">
            <g id="Page-1" transform="translate(51.000000, 0.000000)">
                <g id="Group-3">
                    <mask id="mask-2" fill="white">
                        <use xlink:href="#path-1"></use>
                    </mask>
                    <g id="Clip-2"></g>
                    <path d="M385.745764,300 L2.20995222,300 C0.989309887,300 -0.000128732581,299.010386 -0.000128732581,297.789785 L-0.000128732581,2.32995708 C-0.000128732581,1.10935622 0.989309887,0.119742489 2.20995222,0.119742489 L385.745764,0.119742489 C386.966149,0.119742489 387.955587,1.10935622 387.955587,2.32995708 L387.955587,297.789785 C387.955587,299.010386 386.966149,300 385.745764,300" id="Fill-1" fill="#D7D8D8" mask="url(#mask-2)"></path>
                </g>
                <path d="M385.789758,295 L8.21049942,295 C6.98962596,295 6,294.010084 6,292.789111 L6,2.21088878 C6,0.989915598 6.98962596,0 8.21049942,0 L385.789758,0 C387.010374,0 388,0.989915598 388,2.21088878 L388,292.789111 C388,294.010084 387.010374,295 385.789758,295" id="Fill-4" fill="#FEFEFE"></path>
                <path d="M235.400701,115 L37.5992986,115 C37.2681816,115 37,114.739585 37,114.418615 L37,109.581385 C37,109.260165 37.2681816,109 37.5992986,109 L235.400701,109 C235.731818,109 236,109.260165 236,109.581385 L236,114.418615 C236,114.739585 235.731818,115 235.400701,115" id="Fill-6" fill="#989898"></path>
                <path d="M142.435726,129 L69.5642738,129 C69.2525403,129 69,128.756531 69,128.455995 L69,123.544005 C69,123.243469 69.2525403,123 69.5642738,123 L142.435726,123 C142.74746,123 143,123.243469 143,123.544005 L143,128.455995 C143,128.756531 142.74746,129 142.435726,129" id="Fill-8" fill="#989898"></path>
                <path d="M142.484321,140 L69.5156785,140 C69.2308275,140 69,139.777464 69,139.502845 L69,134.497155 C69,134.222536 69.2308275,134 69.5156785,134 L142.484321,134 C142.769172,134 143,134.222536 143,134.497155 L143,139.502845 C143,139.777464 142.769172,140 142.484321,140" id="Fill-10" fill="#989898"></path>
                <path d="M235.476481,157 L37.5235193,157 C37.2342736,157 37,156.77248 37,156.492129 L37,151.507871 C37,151.227271 37.2342736,151 37.5235193,151 L235.476481,151 C235.765726,151 236,151.227271 236,151.507871 L236,156.492129 C236,156.77248 235.765726,157 235.476481,157" id="Fill-12" fill="#D7D8D8"></path>
                <path d="M235.524774,167 L37.475226,167 C37.2126958,167 37,166.793662 37,166.538979 L37,161.461021 C37,161.206338 37.2126958,161 37.475226,161 L235.524774,161 C235.787304,161 236,161.206338 236,161.461021 L236,166.538979 C236,166.793662 235.787304,167 235.524774,167" id="Fill-14" fill="#D7D8D8"></path>
                <path d="M197.501579,177 L37.4984208,177 C37.2232698,177 37,176.784691 37,176.518794 L37,171.480957 C37,171.215309 37.2232698,171 37.4984208,171 L197.501579,171 C197.77673,171 198,171.215309 198,171.480957 L198,176.518794 C198,176.784691 197.77673,177 197.501579,177" id="Fill-16" fill="#D7D8D8"></path>
                <path d="M346.483039,126 L274.517218,126 C274.231556,126 274,125.774972 274,125.497612 L274,120.502388 C274,120.224779 274.231556,120 274.517218,120 L346.483039,120 C346.768701,120 347,120.224779 347,120.502388 L347,125.497612 C347,125.774972 346.768701,126 346.483039,126" id="Fill-18" fill="#D7D8D8"></path>
                <path d="M323.523936,107 L274.475808,107 C274.212976,107 274,106.792167 274,106.535989 L274,101.463762 C274,101.207584 274.212976,101 274.475808,101 L323.523936,101 C323.786768,101 324,101.207584 324,101.463762 L324,106.535989 C324,106.792167 323.786768,107 323.523936,107" id="Fill-20" fill="#989898"></path>
                <path d="M335.455518,197 L308.544482,197 C308.243841,197 308,196.769988 308,196.486398 L308,191.513602 C308,191.229763 308.243841,191 308.544482,191 L335.455518,191 C335.756159,191 336,191.229763 336,191.513602 L336,196.486398 C336,196.769988 335.756159,197 335.455518,197" id="Fill-22" fill="#989898"></path>
                <path d="M346.498168,137 L274.502088,137 C274.224888,137 274,136.7817 274,136.512315 L274,131.487685 C274,131.2183 274.224888,131 274.502088,131 L346.498168,131 C346.775368,131 347,131.2183 347,131.487685 L347,136.512315 C347,136.7817 346.775368,137 346.498168,137" id="Fill-24" fill="#D7D8D8"></path>
                <path d="M346.525604,147 L274.474396,147 C274.212324,147 274,146.793662 274,146.538979 L274,141.461021 C274,141.206338 274.212324,141 274.474396,141 L346.525604,141 C346.787676,141 347,141.206338 347,141.461021 L347,146.538979 C347,146.793662 346.787676,147 346.525604,147" id="Fill-26" fill="#D7D8D8"></path>
                <path d="M354.512447,208 L308.487808,208 C308.218497,208 308,207.785937 308,207.521784 L308,202.478216 C308,202.214063 308.218497,202 308.487808,202 L354.512447,202 C354.781757,202 355,202.214063 355,202.478216 L355,207.521784 C355,207.785937 354.781757,208 354.512447,208" id="Fill-28" fill="#D7D8D8"></path>
                <path d="M335.47586,234 L308.52414,234 C308.234595,234 308,233.77871 308,233.505586 L308,228.494414 C308,228.22129 308.234595,228 308.52414,228 L335.47586,228 C335.765405,228 336,228.22129 336,228.494414 L336,233.505586 C336,233.77871 335.765405,234 335.47586,234" id="Fill-30" fill="#989898"></path>
                <path d="M354.50203,244 L308.498224,244 C308.22307,244 308,243.781202 308,243.511567 L308,238.488433 C308,238.218549 308.22307,238 308.498224,238 L354.50203,238 C354.777184,238 355,238.218549 355,238.488433 L355,243.511567 C355,243.781202 354.777184,244 354.50203,244" id="Fill-32" fill="#D7D8D8"></path>
                <path d="M62,131.5 C62,125.148672 56.6274705,120 50,120 C43.3725295,120 38,125.148672 38,131.5 C38,137.851328 43.3725295,143 50,143 C56.6274705,143 62,137.851328 62,131.5" id="Fill-34" fill="#D7D8D8"></path>
                <path d="M235.457729,206 L37.5420139,206 C37.2427503,206 37,205.764506 37,205.473938 L37,200.525813 C37,200.235245 37.2427503,200 37.5420139,200 L235.457729,200 C235.75725,200 236,200.235245 236,200.525813 L236,205.473938 C236,205.764506 235.75725,206 235.457729,206" id="Fill-36" fill="#989898"></path>
                <path d="M142.449686,220 L69.5503137,220 C69.2463358,220 69,219.762512 69,219.469452 L69,214.530299 C69,214.237488 69.2463358,214 69.5503137,214 L142.449686,214 C142.753664,214 143,214.237488 143,214.530299 L143,219.469452 C143,219.762512 142.753664,220 142.449686,220" id="Fill-38" fill="#989898"></path>
                <path d="M142.506551,231 L69.4934488,231 C69.2207466,231 69,230.786934 69,230.524276 L69,225.475724 C69,225.212817 69.2207466,225 69.4934488,225 L142.506551,225 C142.778995,225 143,225.212817 143,225.475724 L143,230.524276 C143,230.786934 142.778995,231 142.506551,231" id="Fill-40" fill="#989898"></path>
                <path d="M216.457709,248 L37.5420335,248 C37.2426515,248 37,247.765502 37,247.475931 L37,242.523819 C37,242.234498 37.2426515,242 37.5420335,242 L216.457709,242 C216.757091,242 217,242.234498 217,242.523819 L217,247.475931 C217,247.765502 216.757091,248 216.457709,248" id="Fill-42" fill="#D7D8D8"></path>
                <path d="M235.508334,259 L37.4916656,259 C37.220145,259 37,258.786435 37,258.52303 L37,253.47697 C37,253.213565 37.220145,253 37.4916656,253 L235.508334,253 C235.779855,253 236,253.213565 236,253.47697 L236,258.52303 C236,258.786435 235.779855,259 235.508334,259" id="Fill-44" fill="#D7D8D8"></path>
                <path d="M194.40104,269 L37.5987026,269 C37.2681528,269 37,268.740831 37,268.421107 L37,263.578644 C37,263.259169 37.2681528,263 37.5987026,263 L194.40104,263 C194.731847,263 195,263.259169 195,263.578644 L195,268.421107 C195,268.740831 194.731847,269 194.40104,269" id="Fill-46" fill="#D7D8D8"></path>
                <path d="M62,222.5 C62,216.148672 56.6274705,211 50,211 C43.3725295,211 38,216.148672 38,222.5 C38,228.851328 43.3725295,234 50,234 C56.6274705,234 62,228.851328 62,222.5" id="Fill-48" fill="#D7D8D8"></path>
                <path d="M303,235 C303,227.267943 296.732074,221 288.99987,221 C281.267926,221 275,227.267943 275,235 C275,242.732057 281.267926,249 288.99987,249 C296.732074,249 303,242.732057 303,235" id="Fill-50" fill="#D7D8D8"></path>
                <path d="M303,199 C303,191.267943 296.732074,185 288.99987,185 C281.267926,185 275,191.267943 275,199 C275,206.732057 281.267926,213 288.99987,213 C296.732074,213 303,206.732057 303,199" id="Fill-52" fill="#D7D8D8"></path>
                <path d="M273.477665,76 L249.522335,76 C249.23408,76 249,75.7757818 249,75.4991235 L249,63.5008765 C249,63.2242182 249.23408,63 249.522335,63 L273.477665,63 C273.766176,63 274,63.2242182 274,63.5008765 L274,75.4991235 C274,75.7757818 273.766176,76 273.477665,76" id="Fill-54" fill="#989898"></path>
                <path d="M355.477665,24 L331.52259,24 C331.23408,24 331,23.7757818 331,23.4991235 L331,11.5008765 C331,11.2242182 331.23408,11 331.52259,11 L355.477665,11 C355.766176,11 356,11.2242182 356,11.5008765 L356,23.4991235 C356,23.7757818 355.766176,24 355.477665,24" id="Fill-56" fill="#989898"></path>
                <path d="M325.477665,24 L301.52259,24 C301.23408,24 301,23.7757818 301,23.4991235 L301,11.5008765 C301,11.2242182 301.23408,11 301.52259,11 L325.477665,11 C325.766176,11 326,11.2242182 326,11.5008765 L326,23.4991235 C326,23.7757818 325.766176,24 325.477665,24" id="Fill-58" fill="#D7D8D8"></path>
                <path d="M81.467323,23 L37.532677,23 C37.2384537,23 37,22.7757818 37,22.4991235 L37,10.5008765 C37,10.2242182 37.2384537,10 37.532677,10 L81.467323,10 C81.7615463,10 82,10.2242182 82,10.5008765 L82,22.4991235 C82,22.7757818 81.7615463,23 81.467323,23" id="Fill-60" fill="#1CA14A"></path>
                <path d="M243.463276,76 L37.5364672,76 C37.2400864,76 37,75.7708809 37,75.4883414 L37,63.5116586 C37,63.2291191 37.2400864,63 37.5364672,63 L243.463276,63 C243.759657,63 244,63.2291191 244,63.5116586 L244,75.4883414 C244,75.7708809 243.759657,76 243.463276,76" id="Fill-62" fill="#D7D8D8"></path>
                <path d="M257,100 L257,269" id="Stroke-64" stroke="#D7D8D8"></path>
            </g>
            <g id="Page-1" transform="translate(0.000000, 22.000000)">
                <path d="M108.755229,118 C108.755229,118 110.838747,109.618095 112.439928,105.942305 C114.041401,102.266842 111.699375,100 111.699375,100 L105,118" id="Fill-1" fill="#C78D58"></path>
                <polygon id="Fill-3" fill="#C78D58" points="59 69.8917448 58.1144088 60.9562626 37 57 37 67.9285381 40.5959314 79.2000311 52.99611 87"></polygon>
                <path d="M33.0202499,65 C33.0202499,65 16.724528,72.9576041 13.5155089,76.4645428 C13.5155089,76.4645428 7.49891094,81.9943391 8.03364316,89.2777625 L69,127" id="Fill-5" fill="#FBCD34"></path>
                <path d="M63.9983717,66.4280673 C63.9983717,66.4280673 64.0637877,71.2465895 63.365357,73 L59,72.0439385 L61.9057227,65 L63.9983717,66.4280673 Z" id="Fill-7" fill="#DCB133"></path>
                <polyline id="Fill-9" fill="#DCB133" points="33.7441476 66.1622912 33.0496098 64 30 66.3590181 37 72"></polyline>
                <path d="M52,104 C52,104 47.0413686,106.742267 45,112" id="Fill-11" fill="#C78D58"></path>
                <path d="M34,68.497691 C34,68.497691 45.5094637,81.6487883 64,73.1272352 C64,73.1272352 35.5640379,66.1031201 34,68.497691" id="Fill-13" fill="#DCB133"></path>
                <path d="M35.713479,295 L34,305.222051 L64.9135932,323 L74,314.541858 C74,314.541858 52.1521395,304.333439 49.3401578,295" id="Fill-15" fill="#C78D58"></path>
                <path d="M57,311.855506 C57,311.855506 57,307.325199 60.7220414,307.006296 C63.3766332,306.77874 61.9555681,312.795311 61.9555681,312.795311 L64,315" id="Fill-17" fill="#AB7143"></path>
                <path d="M59.6385907,313.396622 C59.6385907,313.396622 44.0911777,308.766044 36.5797437,298 L36,301.397625 C36,301.397625 58.1409721,321.364004 66,320.994946" id="Fill-19" fill="#AB7143"></path>
                <path d="M81.0129887,316.820053 C77.1929724,325.775065 60.7996998,309.242808 60.7996998,309.242808 C60.7996998,309.242808 58.5216329,311.774853 60.9134605,314.881956 C63.3052882,317.989379 58.863232,315.572601 58.863232,315.572601 C41.7782053,309.357756 35.7973685,299 35.7973685,299 C32.9641238,309.189017 34.3283021,312.925608 34.3283021,312.925608 C34.3283021,312.925608 41.2689754,317.147605 46.8635326,316.933079 C52.4584067,316.718233 58.9738239,321.798973 58.9738239,321.798973 C67.2596626,325.019102 77.3159227,326.879713 82.1319001,322.085221 C83.7831738,320.441057 82.8940021,318.569559 81.0129887,316.820053" id="Fill-21" fill="#218C44"></path>
                <path d="M80,316.386781 C76.433812,313.093157 69.264752,310.239396 69.264752,310.239396 C69.264752,310.239396 66.3218787,308.97361 65.9011099,307.458317 C65.4809682,305.942708 64.2823102,306.000287 64.2823102,306.000287 L60,308.940888 C60,308.940888 76.2202922,325.186559 80,316.386781" id="Fill-23" fill="#1CA14A"></path>
                <path d="M37.7862668,55 C37.7862668,55 46.5199169,67.7093336 60.5895109,61.4193186 C60.5895109,61.4193186 66.020003,65.2105256 63.175943,72.4113985 C63.175943,72.4113985 53.7001848,78.5389879 34.2949642,66.725225 C34.2949642,66.725225 32.495376,57.8647435 37.7862668,55" id="Fill-25" fill="#FBCD34"></path>
                <g id="Group-29" transform="translate(97.000000, 83.000000)">
                    <mask id="mask-4" fill="white">
                        <use xlink:href="#path-3"></use>
                    </mask>
                    <g id="Clip-28"></g>
                    <path d="M20.4883125,19.3673366 C20.4883125,19.3673366 15.4339375,23.451239 14.067375,26.7377024 L13.50175,30.9062634 L10.2205,36.8922878 L7.226125,38.9447024 L0.1483125,37.9969707 L6.8176875,22.944239 C6.8176875,22.944239 10.9583125,12.8549707 13.6033125,9.03011707 C16.2483125,5.20526341 23.7526875,0.139068293 23.7526875,0.139068293 C31.358,1.68701951 29.8239375,11.7455317 29.8239375,11.7455317 C23.5551875,16.0307756 20.4883125,19.3673366 20.4883125,19.3673366" id="Fill-27" fill="#C78D58" mask="url(#mask-4)"></path>
                </g>
                <polyline id="Fill-30" fill="#C78D58" points="21.0679914 301 18 327.159872 25.9404218 336 33.9987455 335.073906 37 328.592506 34.5609246 301"></polyline>
                <path d="M13.0961401,76.6505687 C17.8521217,71.7649108 15.3338297,96 15.3338297,96 L8.06925179,91.2903483 C8.06925179,91.2903483 7.01927432,82.8930065 13.0961401,76.6505687" id="Fill-32" fill="#DCB133"></path>
                <path d="M26.0539982,159.171111 C26.0358929,159.167939 26.0181053,159.165085 26,159.16223 C26.4259505,174.106262 26.595886,216.213131 29.6296319,223.093762 C33.3316848,231.489888 34.5873018,252.849561 30.9132008,261.816615 C29.0594744,266.340266 28.5566559,277.28939 28.5131397,287.030685 L28.8707984,305 C30.4700979,304.976846 32.3149305,304.767823 34.4364245,304.269847 C34.4364245,304.269847 33.3624956,295.584768 36.0747933,281.604969 L47.99029,192.425429 L48.3095146,224.836043 C52.7802479,244.289452 43.5195568,257.258075 43.5195568,257.258075 C40.1259288,265.392843 37.9447192,272.821246 36.5553773,279.251795 C36.3819478,280.053314 36.2240825,280.835168 36.0747933,281.604969 L36.3508194,296.671434 C43.8692745,299.851818 50.9176276,296.671434 50.9176276,296.671434 C50.9176276,296.671434 58.4360827,254.926469 58.2010317,247.770208 C57.9662984,240.613947 64.0747652,226.301424 64.0747652,226.301424 C84.0455226,170.641366 72.8983885,157 72.8983885,157 C53.0975667,162.01338 36.106557,160.809356 26.0539982,159.171111 Z" id="Fill-34" fill="#1F3A4E"></path>
                <polyline id="Fill-36" fill="#1A2B3C" points="36.2676191 294.756555 40.8522114 296 45 263.020031 43.7154283 258.32001 39.2827944 255 36 279.936865"></polyline>
                <path d="M47.3443408,192 C47.3443408,192 60.8293694,237.217321 36,279" id="Fill-38" fill="#1A2B3C"></path>
                <path d="M48.0556397,184 C48.0556397,184 52.7362728,198.400505 50.2945659,239.003391 C49.600466,250.549097 41,296 41,296 L48.0556397,184 Z" id="Fill-40" fill="#1A2B3C"></path>
                <path d="M26.1207298,159.15649 C20.0670815,158.155795 16.5749192,157 16.5749192,157 C16.5749192,157 10.7864586,189.924617 21.404043,216.880269 C29.9442192,238.562845 23.0943781,254.57492 23.0943781,254.57492 C23.0943781,254.57492 16.776487,268.216727 20.4157309,302.321244 C20.4157309,302.321244 22.8421034,305.086716 29,304.997906 C28.9971655,304.935105 28.6031634,296.561617 28.6453666,287.028845 L26.1207298,159.15649 Z" id="Fill-42" fill="#1A2B3C"></path>
                <path d="M29,304.009 L29,304 C29,304 29,304.009 29,304.009" id="Fill-44" fill="#1A2B3C"></path>
                <path d="M30,292 L28.0176814,274 C27.781775,283.549503 29.9841555,291.937408 30,292" id="Fill-46" fill="#1A2B3C"></path>
                <path d="M32.013398,223.139067 C29.7827886,216.351466 26.5009331,173.847543 26.0357314,159.005355 C26.0239366,159.003465 26.0121417,159.00189 26,159 L26.8325397,281.928879 C26.853415,277.679384 27.5869795,279.297796 28.3022768,276.57559 C29.2154763,273.100227 30.2530334,265.46633 31.4016827,260.958297 C35.4146982,252.052543 34.8823156,231.870303 32.013398,223.139067 Z" id="Fill-48" fill="#1A2B3C"></path>
                <path d="M43,70.8731137 C43,70.8731137 37.8830612,65.862139 40.1414929,57.7233085 L37.7045597,55 C37.7045597,55 32.7757459,56.3896398 34.2885071,66.4479706 L42.4620121,72" id="Fill-50" fill="#DCB133"></path>
                <path d="M50.9157142,208 C50.9157142,208 54.3476853,239.50268 49,252" id="Fill-52" fill="#1A2B3C"></path>
                <path d="M20.365828,307 C20.365828,307 17.7661433,325.602008 23,319.877283 L22.5096236,330 L18.9199895,328.879612 L18,324.454192 L18.1533863,316.290001" id="Fill-54" fill="#AB7143"></path>
                <path d="M37.3654659,320.642783 C37.3654659,320.642783 36.6784832,318.088407 33.5867419,318.005781 C30.4950007,317.92346 24.4834234,318.747581 24.4834234,318.747581 C24.4834234,318.747581 21.133984,319.159488 21.220096,322.950198 C21.2915371,326.109581 19.5743992,325.83416 19,325.654831 L39,333 L37.3654659,320.642783 Z" id="Fill-56" fill="#1CA14A"></path>
                <path d="M19,327 C19,327 19.22,327.105 19.579,327.222 L19,327 Z" id="Fill-58" fill="#AB7143"></path>
                <path d="M39,334.54771 L19.1829731,327.069171 C19.0695234,327.032716 19,327 19,327 C19,327 29.4212489,347.887379 39,334.54771" id="Fill-60" fill="#1CA14A"></path>
                <g id="Group-64" transform="translate(18.000000, 307.000000)">
                    <mask id="mask-6" fill="white">
                        <use xlink:href="#path-5"></use>
                    </mask>
                    <g id="Clip-63"></g>
                    <path d="M1.5266087,19.430061 C1.5266087,19.430061 0.208202899,18.593661 2.61385507,0.14008 C2.61385507,0.14008 -0.217130435,5.19086095 0.317565217,17.8615276 C0.317565217,17.8615276 -1.10828986,30.5321943 9.58562319,33.4283467 C20.2795362,36.324499 21.7053913,27.2740229 21.7053913,27.2740229 C10.978,37.3817371 1.5266087,19.430061 1.5266087,19.430061" id="Fill-62" fill="#218C44" mask="url(#mask-6)"></path>
                </g>
                <path d="M26,159 C26,159 43.8506547,232.652719 28.2137084,277.037228" id="Fill-65" fill="#1A2B3C"></path>
                <path d="M30,272 C30,272 28.7608502,277.532565 28.6997495,280.017877 C28.6386487,282.502875 26,283 26,283" id="Fill-67" fill="#1A2B3C"></path>
                <path d="M42.1935398,256.702122 C42.1935398,256.702122 50.9068717,244.098943 46.985857,225.110765 C46.8805887,224.601447 46.8192077,224.083265 46.8142972,223.562551 L46.5132237,192 L35,280.99082 L35.0003069,281 C35.1445521,280.231749 35.2970838,279.451469 35.4643468,278.651564 C36.807055,272.233961 38.9145697,264.820513 42.1935398,256.702122" id="Fill-69" fill="#1F3A4E"></path>
                <path d="M24.6938726,319 C24.6938726,319 21.9049259,331.540833 31,337 L20.2235483,334.050033 L19,326.222232 C19,326.222232 21.4627954,327.201677 21.4156988,323.437714 C21.3682819,319.673752 24.6938726,319 24.6938726,319" id="Fill-71" fill="#218C44"></path>
                <path d="M73.1452083,44.6626237 C72.68256,45.9632841 73.3620948,47.392278 74.6627718,47.8549204 C75.963128,48.317242 77.3924611,47.6380368 77.8547886,46.3373763 C78.3174369,45.0370368 77.6379021,43.607722 76.3375459,43.1450796 C75.0368689,42.682758 73.6075358,43.3619632 73.1452083,44.6626237" id="Fill-73" fill="#C78D58"></path>
                <path d="M77.2809389,43.4958504 L77.7057244,44.3803394 L75.0822829,47.7123864 L70.9514185,45 C71.1516446,41.0177779 71.4961869,38.7012502 71.9850454,38.0504169 C72.4739039,37.3995836 74.2392018,39.2147281 77.2809389,43.4958504 Z" id="Fill-75" fill="#C78D58"></path>
                <polygon id="Fill-77" fill="#C78D58" points="75.5080466 48 71 47.3633852 73.7571704 44"></polygon>
                <path d="M48.2390117,10.1683011 C60.5324017,8.54867363 71.9585,18.8009408 73.759608,33.0675071 C74.562232,39.425904 73.3162155,45.5077253 70.6014033,50.4405719 L62.8394042,47.6207638 L62.3629043,48.9891025 L63.2354562,49.3058212 C64.1247165,50.6185287 66.2188411,52.0750555 68.8918822,53.1336293 C66.3215671,56.6576782 62.9031439,59.3608504 58.9209654,60.812952 C57.5935726,61.2968805 56.2033685,61.6417309 54.7611825,61.8316989 C42.467483,63.4513264 31.0416942,53.1990592 29.2405862,38.9324929 C27.4394782,24.6662427 35.9456216,11.7879286 48.2390117,10.1683011" id="Fill-79" fill="#C78D58"></path>
                <path d="M72,51.5123039 C71.6766411,52.0219653 71.3385543,52.5190751 70.9831214,53 C68.1560221,51.8934765 65.9409482,50.3714286 65,49 L72,51.5123039 Z" id="Fill-81" fill="#D55246"></path>
                <path d="M64,48 L72,51 L64,48 Z" id="Fill-83" fill="#D55246"></path>
                <path d="M65,50 L64,49.6237104 L64.5459383,48 C64.3487052,48.5863815 64.5250089,49.2748077 65,50" id="Fill-85" fill="#C78D58"></path>
                <path d="M64.0708734,48 L72,50.7582902 C71.7569362,51.181263 71.5012293,51.594651 71.235724,52 L64.4754529,49.6482956 C64.0522248,49.05063 63.8951342,48.4832651 64.0708734,48" id="Fill-87" fill="#F2F2F3"></path>
                <path d="M49,33.1291569 L46.1222875,45 C42.587649,44.3157369 40.3665138,41.1035018 41.1611711,37.8255201 C41.9558284,34.5475383 45.4653615,32.4448938 49,33.1291569" id="Fill-89" fill="#AB7143"></path>
                <path d="M67.0019283,35.0700582 C67.0435491,36.1739232 67.747882,37.0373751 68.5751978,36.9987533 C69.4025137,36.9601314 70.0394475,36.0338069 69.9980951,34.9299418 C69.9564742,33.8260768 69.2521414,32.9626249 68.4248256,33.0012467 C67.5975097,33.0398686 66.9603074,33.9661931 67.0019283,35.0700582" id="Fill-91" fill="#41363A"></path>
                <path d="M68.7449085,28.4207776 L68.9622167,28.9829966 C69.1100721,29.3652453 68.8075591,29.7776397 68.3410804,29.8246672 C67.1489284,29.9452504 65.2851617,30.3549317 64.1427722,30.9861846 C64.0536293,31.0353222 63.9562523,30.9430761 64.0210509,30.8710277 C64.7037638,30.1104493 66.2034409,28.6016524 67.799063,28.0457639 C68.1849908,27.9113137 68.6149532,28.0840491 68.7449085,28.4207776" id="Fill-93" fill="#342014"></path>
                <path d="M72,20.346948 C72,20.346948 59.9309179,44.3188664 39.1729915,39.3123111 C39.1729915,39.3123111 32.4297733,36.8606556 29,33.3812939 C29,33.3812939 39.9566109,30.2072445 45.9564771,21.5328358 C49.6086808,16.2531727 65.8927536,-5.38548953 72,20.346948" id="Fill-95" fill="#342014"></path>
                <path d="M58,9.9568445 C58,9.9568445 37.6706446,-1.52301639 27,31.1277587 L36.3681526,32 L58,9.9568445 Z" id="Fill-97" fill="#342014"></path>
                <path d="M47.9539545,10.851014 C47.48405,15.2438943 43.5419196,18.4238589 39.1490393,17.9539545 C34.756159,17.48405 31.5758854,13.5416107 32.0460988,9.1490393 C32.5160032,4.75615899 36.4581336,1.57588543 40.851014,2.04609879 C45.2438943,2.51600321 48.4238589,6.45813365 47.9539545,10.851014" id="Fill-99" fill="#342014"></path>
                <path d="M51.9798495,8.87233786 C51.7742251,10.7940708 50.0493951,12.1854739 48.1276621,11.9798495 C46.2059292,11.7742251 44.8145261,10.0493951 45.0201505,8.12766214 C45.2257749,6.20592917 46.9506049,4.81452607 48.8723379,5.02015049 C50.7940708,5.22577491 52.1854739,6.95060489 51.9798495,8.87233786" id="Fill-101" fill="#342014"></path>
                <path d="M47.9798495,4.87233786 C47.7742251,6.79407083 46.0493951,8.18547393 44.1276621,7.97984951 C42.2059292,7.77422509 40.8145261,6.04939511 41.0201505,4.12766214 C41.2257749,2.20592917 42.9506049,0.814526071 44.8723379,1.02015049 C46.7940708,1.22577491 48.1854739,2.95060489 47.9798495,4.87233786" id="Fill-103" fill="#342014"></path>
                <g id="Group-107" transform="translate(36.000000, 0.000000)">
                    <mask id="mask-8" fill="white">
                        <use xlink:href="#path-7"></use>
                    </mask>
                    <g id="Clip-106"></g>
                    <path d="M7.76621818,4.536 C7.54330909,6.61927273 5.67349091,8.12763636 3.59021818,7.90472727 C1.50694545,7.68181818 -0.00141818182,5.812 0.221490909,3.72872727 C0.4444,1.64545455 2.31421818,0.137090909 4.39749091,0.36 C6.48076364,0.582909091 7.98912727,2.45272727 7.76621818,4.536" id="Fill-105" fill="#342014" mask="url(#mask-8)"></path>
                </g>
                <path d="M39.9798495,4.87233786 C39.7742251,6.79407083 38.0493951,8.18547393 36.1276621,7.97984951 C34.2059292,7.77422509 32.8145261,6.04939511 33.0201505,4.12766214 C33.2257749,2.20592917 34.9506049,0.814526071 36.8723379,1.02015049 C38.7940708,1.22577491 40.1854739,2.95060489 39.9798495,4.87233786" id="Fill-108" fill="#342014"></path>
                <path d="M36.9798495,8.87233786 C36.7742251,10.7940708 35.0493951,12.1854739 33.1276621,11.9798495 C31.2059292,11.7742251 29.8145261,10.0493951 30.0201505,8.12766214 C30.2257749,6.20592917 31.9506049,4.81452607 33.8723379,5.02015049 C35.7940708,5.22577491 37.1854739,6.95060489 36.9798495,8.87233786" id="Fill-110" fill="#342014"></path>
                <path d="M36.9798495,11.8723379 C36.7742251,13.7940708 35.0493951,15.1854739 33.1276621,14.9798495 C31.2059292,14.7742251 29.8145261,13.0493951 30.0201505,11.1276621 C30.2257749,9.20592917 31.9506049,7.81452607 33.8723379,8.02015049 C35.7940708,8.22577491 37.1854739,9.95060489 36.9798495,11.8723379" id="Fill-112" fill="#342014"></path>
                <path d="M36.9798495,16.8723379 C36.7742251,18.7940708 35.0493951,20.1854739 33.1276621,19.9798495 C31.2059292,19.7742251 29.8145261,18.0493951 30.0201505,16.1276621 C30.2257749,14.2059292 31.9506049,12.8145261 33.8723379,13.0201505 C35.7940708,13.2257749 37.1854739,14.9506049 36.9798495,16.8723379" id="Fill-114" fill="#342014"></path>
                <path d="M34,51 C34,51 25.2734614,40.9738358 27.3073398,30.9058908 L32.6148866,27" id="Fill-116" fill="#342014"></path>
                <path d="M40,39.3701792 C40,39.3701792 36.3383511,48.2621063 39.2996133,55.4238895 C39.2996133,55.4238895 40.700076,59.9432035 37.0859688,57.0101122 C33.4718616,54.0770209 32.713679,52.0859037 32.713679,52.0859037 L31,34" id="Fill-118" fill="#342014"></path>
                <polyline id="Fill-120" fill="#FBCD34" points="96 111 90.9562827 121 87 117.312238 88.7108086 112.339198"></polyline>
                <path d="M44.700704,111 C44.700704,111 46.0683781,115.559519 42.9564517,119 L39,119 C39,119 45.1229667,113.126112 44.700704,111" id="Fill-122" fill="#FBCD34"></path>
                <path d="M95,111.02133 C95,111.02133 92.2731219,76.3022181 81.0187065,73.8255717 C69.764291,71.3486098 62.6441442,66 62.6441442,66 L37,71.2202027 L45.6710077,158 L72.9784031,158 C72.9784031,158 77.7009943,133.795435 78.8842321,120.426592" id="Fill-124" fill="#FBCD34"></path>
                <path d="M113.994268,84.000018 C113.994268,84.000018 118.011985,83.9074457 109.98696,97 L107,96.4442369" id="Fill-126" fill="#C78D58"></path>
                <polyline id="Fill-128" fill="#DCB133" points="63 144.406833 45.8583279 159 16 159 20.6897502 132"></polyline>
                <polygon id="Fill-130" fill="#D6CFD1" points="55 142.050371 74.9924504 144.203205 55 139"></polygon>
                <polyline id="Fill-132" fill="#C5C3C4" points="75 144.205304 74.3814276 146 55 144.205304 55 142"></polyline>
                <path d="M103.641157,115 C103.641157,115 108.859615,106.781851 109.581243,104.344682 C110.303187,101.907513 108.113039,94.4902461 109.581243,92.5831283 C111.049448,90.6756967 115.101617,84.9537158 113.715523,84 C113.715523,84 106.89085,90.0398862 107.210767,90.7817698 C107.210767,90.7817698 102.818785,101.575171 101.389425,107.30437 C99.9597492,113.033569 99,115 99,115" id="Fill-134" fill="#AB7143"></path>
                <path d="M20.1212788,145.505929 C20.1212788,145.505929 47.0406201,147.811448 45.9688236,142.461817 L27.9720071,136.965168 L20.6168001,136.965168 L17.5195566,136 L16,145.505929 L20.1212788,145.505929 Z" id="Fill-136" fill="#AB7143"></path>
                <path d="M80,120.790084 C81.3212384,126.723615 84.6238667,131.206818 84.6238667,131.206818 C86.1427142,134.266134 95.4565252,141.887361 95.9851452,135.558116 C96.5134535,129.22887 82.77432,108 82.77432,108" id="Fill-138" fill="#DCB133"></path>
                <path d="M89,118.698111 C89,118.698111 98.4530049,107.532004 101.333909,104 C101.333909,104 97.6781735,114.409969 109,117.048269 C109,117.048269 101.909462,132.993914 94.9849365,137" id="Fill-140" fill="#DCB133"></path>
                <path d="M8.05589329,131.876791 C8.05589329,131.547469 6.0680403,148.990068 24.1046188,147.954515 C24.1046188,147.954515 18.3120363,142.252555 26,136.779008 L8.05589329,131.876791 Z" id="Fill-142" fill="#DCB133"></path>
                <path d="M1,94 L2.66920133,128.24594 C2.73214255,129.539393 3.61269031,130.643793 4.84917071,130.980205 L38,140 C8.75687675,130.411773 1,94 1,94" id="Fill-144" fill="#C5C3C4"></path>
                <path d="M55.6693603,99.3943759 L3.59753866,88.069357 C1.69027796,87.6547088 -0.0924037035,89.1545469 0.00371818844,91.0932392 L0.144422932,93.9288165 L37.3189323,139.364069 L54.2661072,143.897221 C56.1490212,144.400834 58,142.990276 58,141.051584 L58,102.273021 C58,100.888241 57.0299277,99.6901939 55.6693603,99.3943759" id="Fill-146" fill="#D6CFD1"></path>
                <path d="M1,94 C1,94 8.75687675,130.411773 38,140 L1,94 Z" id="Fill-152" fill="#D6CFD1"></path>
                <path d="M42,74 C42,74 30,69.6886546 30,66" id="Fill-160" fill="#DCB133"></path>
                <path d="M34,145 L44.4531943,145 C44.4531943,145 47.0055169,143.435825 45.5530069,142" id="Fill-162" fill="#AB7143"></path>
                <path d="M18,158 C18,158 51.3250359,162.5 74,158" id="Fill-164" fill="#DCB133"></path>
                <path d="M103,114 C103,114 111.050368,107.105293 108.501141,97" id="Fill-166" fill="#AB7143"></path>
                <polygon id="Fill-168" fill="#C5C3C4" points="0 93 3.43787406 129.362321 11.3436228 129"></polygon>
                <g id="Group-172" transform="translate(0.000000, 88.000000)" fill="#C5C3C4">
                    <path d="M7.0686479,1.07999273 L3.0738916,0.243265455 C0.896177311,0.385083636 -0.66715042,1.84801697 0.284589076,6.50501091 C2.11935378,15.4830473 5.81842101,29.6661261 5.81842101,29.6661261 L18.4217403,45.444817 L36.787421,51.7355564 C12.1426227,37.3555079 7.09507647,1.26939879 7.0686479,1.07999273" id="Fill-170"></path>
                </g>
            </g>
            <g id="Page-1" transform="translate(338.000000, 182.000000)">
                <path d="M90.0388106,57.3414659 C90.0388106,57.3414659 109.984998,62.9438964 110.849316,81.0371173 C111.713939,99.1303382 108.57552,122 108.57552,122 L34.7713566,120.951558 C34.7713566,120.951558 23.9640283,81.9023812 31.9273549,66.4730686 C31.9273549,66.4730686 32.8610011,64.1104685 47.0565762,56" id="Fill-1" fill="#7EC8AC"></path>
                <path d="M98,176.889205 C95.1398927,177.298748 87.6894896,176.459719 85.5700441,176.20538 C85.2067752,176.161738 85,176.135437 85,176.135437 L90.7628691,164 L95.9895917,164.606656" id="Fill-3" fill="#1CA14A"></path>
                <path d="M99,176.845873 L98.4342158,175.424286 C95.0380621,175.938016 87.2239827,175 87.2239827,175 L86,176.357138 C86,176.357138 97.1711236,177.379226 99,176.845873" id="Fill-5" fill="#218C44"></path>
                <path d="M112.372944,160.278269 C112.372944,160.278269 122.799228,156.941365 127.658316,160.865176 C127.658316,160.865176 124.763448,169.667513 132,176.666957 C132,176.666957 111.11745,176.348931 100.056001,179 C100.056001,179 95.7736614,175.381216 97.3475102,163.284146 C98.9210499,151.18676 112.372944,160.278269 112.372944,160.278269" id="Fill-7" fill="#FBCD34"></path>
                <path d="M83.9250484,51.5371613 C83.9250484,51.5371613 90.1051684,61.3602911 72.828636,72 L59,63.4135193 L64.4682472,49" id="Fill-9" fill="#F8B09C"></path>
                <path d="M137,139.329225 C137,132.802497 131.651268,127.51159 125.053209,127.51159 C118.580237,122.694492 57,153.48129 57,153.48129 L95.5334721,165 C95.5334721,165 135.953785,159.451516 136.97523,140.056323 C136.990092,139.81559 137,139.573633 137,139.329225" id="Fill-11" fill="#E4A354"></path>
                <polygon id="Fill-13" fill="#89623F" points="52 141 78 141 73.8020948 150.111203 63.916522 153"></polygon>
                <polyline id="Fill-15" fill="#D2924E" points="105 145.1764 74.0609345 159 57 153.74449 81 142"></polyline>
                <path d="M94,163.65625 L29.9708987,132.919467 C29.9708987,132.919467 26.6919576,127.674362 12.4552428,127.036369 C12.1657075,127.014486 11.8746354,127 11.5795676,127 C5.18428005,127 0,132.198565 0,138.611475 C0,140.949859 0.691565194,143.124891 1.87736898,144.947332 C3.07792615,146.791965 4.78686059,148.271986 6.80530887,149.189833 C15.7129759,155.787052 38.2404816,168.71119 86.5071217,178 C86.5071217,178 89.2318885,169.576025 94,163.65625" id="Fill-17" fill="#E4A354"></path>
                <path d="M137,142 C137,142 120.4706,157.126602 90,164.296101 L95.5592501,166 C95.5592501,166 133.477846,161.752553 137,142" id="Fill-19" fill="#D2924E"></path>
                <path d="M27.4626987,131.326875 C27.4626987,131.326875 20.0395055,126.453883 10.7375251,127.050657 C1.43523715,127.647431 32.515034,144.810421 32.515034,144.810421 L65,150" id="Fill-21" fill="#D2924E"></path>
                <path d="M90,72.5799812 L86.7904415,73 C86.7904415,73 84.5713348,70.4531436 82.2390257,69.4664373 C81.4050349,69.1137003 80.5525046,68.8502033 79.773851,68.7846106 C76.8179448,68.5354708 83.2828485,64 83.2828485,64 L90,72.5799812 Z" id="Fill-23" fill="#58AC8A"></path>
                <path d="M63.0776099,52 L55.7553499,57.4046893 C55.7553499,57.4046893 54.0558126,66.9560958 55.7553499,72 C55.7553499,72 62.6006724,66.5269125 65.8640833,66.5269125 C65.8640833,66.5269125 68.1075766,70.3901778 74,71.463598 C74,71.463598 61.7086105,58.7144222 63.0776099,52" id="Fill-25" fill="#7EC8AC"></path>
                <path d="M63.0776099,52 L55.7553499,57.4046893 C55.7553499,57.4046893 54.0558126,66.9560958 55.7553499,72 C55.7553499,72 62.6006724,66.5269125 65.8640833,66.5269125 C65.8640833,66.5269125 68.1075766,70.3901778 74,71.463598 C74,71.463598 61.7086105,58.7144222 63.0776099,52 Z" id="Stroke-27" stroke="#7EC8AC" stroke-width="2"></path>
                <path d="M72,72 C72,72 62.6175041,69.6195605 61,68.1192836 L63.9090484,67 C63.9090484,67 67.1151777,70.2218256 72,72" id="Fill-29" fill="#58AC8A"></path>
                <path d="M57,72 C54.1714062,64.4971686 55.171653,58 55.171653,58" id="Fill-31" fill="#58AC8A"></path>
                <path d="M63,66.4808167 C63,66.4808167 61.1405418,62.9149779 59.9683683,60.140891 C58.7959077,57.3670856 52,60.5233975 52,60.5233975 L53.5525629,72 C53.5525629,72 58.3288182,67.7420468 63,66.4808167" id="Fill-33" fill="#58AC8A"></path>
                <path d="M51.9610246,28.9370697 C51.7194813,30.2963686 50.4221335,31.2025679 49.0628345,30.9610246 C47.7038651,30.7194813 46.7976658,29.4221335 47.0388796,28.0628345 C47.2804229,26.7038651 48.5777707,25.7976658 49.9370697,26.0388796 C51.2963686,26.2804229 52.2025679,27.5777707 51.9610246,28.9370697" id="Fill-35" fill="#F8B09C"></path>
                <polyline id="Fill-37" fill="#F8B09C" points="53 24 48 26.0901931 49.5105018 30 51.6662055 27.9052757"></polyline>
                <polyline id="Fill-39" fill="#F8B09C" points="48 30.0710914 53 32 52.0755596 28"></polyline>
                <path d="M87.9548646,11.9179394 C78.3041415,4.74521484 63.7845348,7.69766509 55.5246557,18.5125191 C51.8434105,23.332634 50.0281886,28.9007926 50,34.2281594 L57.907057,35.6133236 L57.6645111,36.9590689 L56.7761056,36.803532 C55.4029181,37.4540978 52.941217,37.6496648 50.1768757,37.2444745 C50.862695,42.7185165 53.514282,47.7161695 58.0430437,51.0820606 C67.6937669,58.2547852 82.2133736,55.3023349 90.4732527,44.4874809 C98.7331317,33.6726269 97.6055878,19.090664 87.9548646,11.9179394" id="Fill-41" fill="#F8B09C"></path>
                <path d="M50,35 C50.0256398,35.5941709 50.0669944,36.184674 50.1268208,36.7698423 C52.5871433,37.2119694 54.7778339,36.9985747 56,36.2887039 L50,35 Z" id="Fill-43" fill="#D55246"></path>
                <path d="M57,36 L50,34 L57,36 Z" id="Fill-45" fill="#D55246"></path>
                <path d="M57,36.7688465 L57.7858121,37 L58,35 C57.9227609,35.7220708 57.5653246,36.3188011 57,36.7688465" id="Fill-47" fill="#F8B09C"></path>
                <path d="M57,35.0757 L50.0002703,34 C49.9980765,34.3626009 50.0093195,34.7235406 50.0309829,35.0828192 L55.9988242,36 C56.5648135,35.7645942 56.9226701,35.4530138 57,35.0757" id="Fill-49" fill="#F2F2F3"></path>
                <path d="M77.3097066,31 L74,41.7579858 C76.8061885,42.6562917 79.8217637,40.976127 80.7359008,38.0055386 C81.6497468,35.0346531 80.1158951,31.8983059 77.3097066,31" id="Fill-51" fill="#F29788"></path>
                <path d="M60.7004045,23.9268822 C60.2036764,24.9054899 59.2636179,25.2836321 58.6007059,24.7718389 C57.937794,24.2597245 57.8028674,23.0517255 58.2995955,22.0731178 C58.7960631,21.0945101 59.7361217,20.7163679 60.3992941,21.2281611 C61.062206,21.7402755 61.1971326,22.9482745 60.7004045,23.9268822" id="Fill-53" fill="#41363A"></path>
                <path d="M99.9335768,23 C99.9335768,23 100.038012,24.1675799 98.5772328,25.5034449 L98,29 C98,29 100.428004,26.2807465 99.9335768,23" id="Fill-55" fill="#EC5E23"></path>
                <path d="M99.9524713,31 C99.9524713,31 99.8453919,29.9367724 98.3706759,28.8609969 L98,27 C98,27 100.361143,28.1683513 99.9524713,31" id="Fill-57" fill="#EC5E23"></path>
                <path d="M99.6192889,29 C99.6192889,29 100.442449,27.4950385 101,27.3958381 C101,27.3958381 98.8274373,26.7241606 99.0110111,27.1307022" id="Fill-59" fill="#EC5E23"></path>
                <path d="M63.4485463,19.1481885 L63.1465405,19.5142276 C62.9412107,19.7629975 62.9531883,20.2084494 63.1728483,20.4247711 C63.7345107,20.97753 64.5367939,22.0184358 64.8986876,22.9605737 C64.9269204,23.0337246 65.0075551,22.9972915 64.9994275,22.9150323 C64.9143012,22.0460453 64.6717554,20.2659455 64.0549107,19.2108079 C63.9056189,18.9554914 63.6294931,18.9290205 63.4485463,19.1481885" id="Fill-61" fill="#EC5E23"></path>
                <path d="M60.5877853,28.9921204 C60.3159737,29.0407021 60.0564613,28.8595969 60.0078796,28.5877853 C59.9592979,28.3159737 60.1404031,28.0564613 60.4122147,28.0078796 C60.6840263,27.9592979 60.9435387,28.1404031 60.9921204,28.4122147 C61.0407021,28.6840263 60.8595969,28.9435387 60.5877853,28.9921204" id="Fill-63" fill="#F29788"></path>
                <path d="M60.2800423,31.0511103 C60.5278971,30.9296631 60.8274139,31.0320477 60.9488812,31.2798614 C61.0703486,31.5279825 60.967947,31.8274497 60.7200922,31.9488969 C60.4722374,32.070344 60.1727205,31.9679595 60.0512532,31.7198383 C59.9294784,31.4720246 60.0321875,31.1725574 60.2800423,31.0511103" id="Fill-65" fill="#F29788"></path>
                <path d="M63.2800423,30.0511103 C63.5278971,29.9296631 63.8274139,30.0320477 63.9488812,30.2798614 C64.0703486,30.5279825 63.967947,30.8274497 63.7200922,30.9488969 C63.4722374,31.070344 63.1727205,30.9679595 63.0512532,30.7198383 C62.9294784,30.4720246 63.0321875,30.1725574 63.2800423,30.0511103" id="Fill-67" fill="#F29788"></path>
                <g id="Group-71" transform="translate(61.000000, 0.000000)">
                    <mask id="mask-10" fill="white">
                        <use xlink:href="#path-9"></use>
                    </mask>
                    <g id="Clip-70"></g>
                    <path d="M12.9554953,11.3523385 C13.4917453,11.4252615 14.8457766,11.6212615 13.8783938,12.8058769 C12.2349094,14.8188 9.22825313,18.7624923 7.75356563,30.4966462 C7.75356563,30.4966462 6.63475313,33.3049538 10.9256672,32.5671077 C11.0344406,32.5483385 11.1359016,32.4984923 11.2193859,32.4255692 C12.4707375,31.3341846 19.7253469,23.8717231 22.3142766,31.3658769 C24.5973,37.9748 20.0601984,42.6329538 17.7445734,44.4800308 C17.2939406,44.8394154 17.3350734,45.4123385 17.4493313,45.9809538 C17.7156281,47.3061846 18.1242141,49.9144923 21.9660188,51.9120308 C22.1719875,52.0191077 22.4209172,51.9960308 22.6067766,51.8563385 C25.1752922,49.9258769 41.9727141,39.6135692 38.1406594,26.8501846 C38.1165891,26.7698769 38.1083625,26.6861846 38.1178078,26.6028 C38.261925,25.3298769 39.7250344,12.9126462 27.2660578,6.9028 C27.2660578,6.9028 16.7902922,1.67141538 12.2416125,2.22710769 C12.2416125,2.22710769 11.8260188,2.2788 11.3248078,2.07110769 C10.7995266,1.85295385 10.4811281,1.32710769 10.4677219,0.753569231 C10.4588859,0.374492308 10.2526125,-0.0316615385 9.33733125,0.136953846 C7.73558906,0.432030769 1.21162031,4.94033846 0.31614375,7.98310769 C0.31614375,7.98310769 -0.61498125,9.50433846 12.9554953,11.3523385" id="Fill-69" fill="#EC5E23" mask="url(#mask-10)"></path>
                </g>
                <g id="Group-75" transform="translate(83.000000, 52.000000)">
                    <path d="M7.86954074,5.90121 L0.217096296,0.18291" id="Fill-72" fill="#7EC8AC"></path>
                    <path d="M7.86954074,5.90121 L0.217096296,0.18291" id="Stroke-74" stroke="#7EC8AC" stroke-width="2"></path>
                </g>
                <path d="M57,59.9314253 C54.1374201,64.2827121 49.974086,66 49.974086,66 L40,66 C47.7247627,45.8456959 51.3454001,47.0125668 51.3454001,47.0125668" id="Fill-76" fill="#F29788"></path>
                <path d="M48.2801902,100 C50.9477102,85.2923345 49.7161563,64.4932341 49.7161563,64.4932341 C49.7161563,64.4932341 42.9140699,63.3834573 40,64.4932341" id="Fill-78" fill="#7EC8AC"></path>
                <g id="Group-83" transform="translate(50.000000, 64.000000)">
                    <path d="M0.1914,0.239173109 C0.1914,0.239173109 3.0419,28.6253244 1.3554,35.7493916" id="Fill-80" fill="#58AC8A"></path>
                    <path d="M0.1914,0.239173109 C0.1914,0.239173109 3.0419,28.6253244 1.3554,35.7493916" id="Stroke-82" stroke="#58AC8A" stroke-width="3"></path>
                </g>
                <polyline id="Fill-84" fill="#218C44" points="50 175.724317 45 176 48.5785627 169"></polyline>
                <path d="M40.5224971,64.4546287 C40.5224971,64.4546287 32.5263164,82.79853 31,101.151989 L37.5460184,103 C37.5460184,103 36.9997083,90.8853308 42.9991226,64.0630428 C43.050284,63.8342443 40.8482838,64.2894517 40.5224971,64.4546287" id="Fill-86" fill="#58AC8A"></path>
                <g id="Group-91" transform="translate(36.000000, 76.000000)">
                    <path d="M8.27499111,1.4648 C8.27499111,1.4648 5.35634667,2.57655 0.108102222,1.4648 L0.532768889,0.0318 C0.532768889,0.0318 5.86941333,3.5243 12.7839689,0.0318" id="Fill-88" fill="#58AC8A"></path>
                    <path d="M8.27499111,1.4648 C8.27499111,1.4648 5.35634667,2.57655 0.108102222,1.4648 L0.532768889,0.0318 C0.532768889,0.0318 5.86941333,3.5243 12.7839689,0.0318" id="Stroke-90" stroke="#58AC8A" stroke-width="2"></path>
                </g>
                <path d="M117,159.904175 C117,159.904175 130.011386,150.914122 139.496664,164.568589 C139.496664,164.568589 146.172127,175.61887 131.389536,177 C131.389536,177 123.969792,173.165628 127.069015,161.553411 C127.069015,161.553411 124.291494,159.202452 117,159.904175" id="Fill-92" fill="#FEFEFE"></path>
                <path d="M83.9440467,52 L91.2466752,57.4046893 C91.2466752,57.4046893 92.941656,66.9560958 91.2466752,72 C91.2466752,72 84.4197056,66.5269125 81.165044,66.5269125 C81.165044,66.5269125 78.8769498,70.1172012 73,71.1903133 C73,71.1903133 85.3093758,58.7144222 83.9440467,52" id="Fill-94" fill="#7EC8AC"></path>
                <path d="M83.9440467,52 L91.2466752,57.4046893 C91.2466752,57.4046893 92.941656,66.9560958 91.2466752,72 C91.2466752,72 84.4197056,66.5269125 81.165044,66.5269125 C81.165044,66.5269125 78.8769498,70.1172012 73,71.1903133 C73,71.1903133 85.3093758,58.7144222 83.9440467,52 Z" id="Stroke-96" stroke="#7EC8AC" stroke-width="2"></path>
                <path d="M98,178.925767 C98,178.925767 121.314793,174.624651 128.787412,176.45236 L130,177.367662 C130,177.367662 100.865151,178.324466 98.8617589,180 L98,178.925767 Z" id="Fill-98" fill="#DCB133"></path>
                <path d="M118.673289,166 C118.673289,166 116.484415,173.486666 120,176" id="Stroke-100" stroke="#FEFEFE" stroke-width="2"></path>
                <path d="M27,180 C27,180 37.2764349,174.746064 46.1670889,175.823786 C46.1670889,175.823786 51.809034,175.257956 49.4027521,168.162144 C49.4027521,168.162144 35.27881,164.528978 30.3191557,161" id="Fill-102" fill="#DCB133"></path>
                <path d="M114.673289,166 C114.673289,166 112.484415,173.486666 116,176" id="Stroke-104" stroke="#FEFEFE" stroke-width="2"></path>
                <g id="Group-109" transform="translate(69.000000, 71.000000)">
                    <path d="M1.799425,0.170292035 C1.799425,0.170292035 1.218175,30.9489204 0.009175,34.885646" id="Fill-106" fill="#58AC8A"></path>
                    <path d="M1.799425,0.170292035 C1.799425,0.170292035 1.218175,30.9489204 0.009175,34.885646" id="Stroke-108" stroke="#58AC8A" stroke-width="3"></path>
                </g>
                <path d="M111.673289,166 C111.673289,166 109.484415,173.486666 113,176" id="Stroke-110" stroke="#FEFEFE" stroke-width="2"></path>
                <path d="M104.673289,166 C104.673289,166 102.484415,173.486666 106,176" id="Stroke-112" stroke="#FEFEFE" stroke-width="2"></path>
                <path d="M108.673289,166 C108.673289,166 106.484415,173.486666 110,176" id="Stroke-114" stroke="#FEFEFE" stroke-width="2"></path>
                <g id="Group-118" transform="translate(20.000000, 159.000000)">
                    <mask id="mask-12" fill="white">
                        <use xlink:href="#path-11"></use>
                    </mask>
                    <g id="Clip-117"></g>
                    <path d="M4.15537692,0.157963235 C4.15537692,0.157963235 -2.72667436,19.4785809 1.71055641,20.8037426 C6.14806923,22.1289044 10.1822487,16.3869485 10.3435821,14.2665662 C10.5049154,12.1464926 11.9349154,8.85381618 9.20268462,2.37284559 C9.20268462,2.37284559 6.51953077,0.625213235 4.15537692,0.157963235" id="Fill-116" fill="#FEFEFE" mask="url(#mask-12)"></path>
                </g>
                <path d="M75,175.713654 C75,175.713654 53.5171288,176.357932 50.0764315,175.713654 L48,169 L75,175.713654 Z" id="Fill-119" fill="#D2924E"></path>
                <path d="M33.7257536,167 C33.7257536,167 37.0282355,173.691326 33,176" id="Stroke-121" stroke="#FEFEFE" stroke-width="2"></path>
                <path d="M37,167 C37,167 39.25,171.691859 37,174" id="Stroke-123" stroke="#FEFEFE" stroke-width="2"></path>
                <path d="M40,168 C40,168 41.9414048,172.494161 40.4141287,175" id="Stroke-125" stroke="#FEFEFE" stroke-width="2"></path>
                <path d="M1,142 C1,142 56.8130308,170.488714 88,175.713628 L87.1468209,178 C87.1468209,178 9.56312881,165.651773 1,142" id="Fill-127" fill="#D2924E"></path>
                <path d="M44,169 C44,169 46.25,172.93361 44,175" id="Stroke-129" stroke="#FEFEFE" stroke-width="2"></path>
                <path d="M90.8777576,58 C90.8777576,58 91.4830025,65.4795992 90,72" id="Fill-131" fill="#58AC8A"></path>
                <path d="M95,78 C95,78 93.8507397,92.7557403 94.1451589,101 L91,101 C91,101 93.5768273,79.1293591 95,78" id="Fill-133" fill="#58AC8A"></path>
                <path d="M31.6391515,67.082928 C31.6391515,67.082928 36.1029066,63.6425884 34.7418219,101.080037 L30.710887,103 C30.710887,103 26.3020933,78.1263693 31.6391515,67.082928" id="Fill-135" fill="#58AC8A"></path>
                <path d="M103.895747,100 L68,100 L68,143 L103.895747,143 C106.162602,143 108,141.190842 108,138.959197 L108,104.040502 C108,101.809158 106.162602,100 103.895747,100" id="Fill-137" fill="#D6CFD1"></path>
                <path d="M33.1042534,100 C30.8373976,100 29,101.809158 29,104.040502 L29,138.959197 C29,141.190842 30.8373976,143 33.1042534,143 L69,143 L69,100 L33.1042534,100 Z" id="Fill-139" fill="#D6CFD1"></path>
                <path d="M84.51476,52 C84.51476,52 88.6111023,68.7202959 73,72 C73,72 84.0528225,59.7292411 83.4680991,52.3476942" id="Fill-141" fill="#58AC8A"></path>
                <path d="M82.8902836,52 C82.8902836,52 79.2395906,63.7964598 73,72 C73,72 84.2214523,59.381207 82.8902836,52" id="Fill-143" fill="#F29788"></path>
                <path d="M33.1041478,100 C30.8374193,100 29,101.80889 29,104.040723 L29,138.959277 C29,141.190811 30.8374193,143 33.1041478,143 L69,143 L69,139.892328 C32.6818365,129.742895 33.1041478,100 33.1041478,100" id="Fill-145" fill="#C5C3C4"></path>
                <path d="M69,143 L89,143 C81.3528034,142.560482 74.727981,141.505928 69,140 L69,143 Z" id="Fill-147" fill="#C5C3C4"></path>
                <path d="M68,41.2776565 C68,40.5719369 67.3954549,40 66.6495533,40 C66.484528,40 66.3267348,40.029445 66.1804474,40.0809737 L60.8690631,40.9963288 C59.2184807,40.7809323 54.1812621,44.0355639 52.5727578,45.5439795 C52.5727578,45.5439795 49.5796184,46.6651296 45,54.4434077 C45,54.4434077 55.7782606,54.0807863 56.9429715,59.5780379 C57.087944,60.2626339 57.6609305,60.7840023 58.371986,60.8800186 C60.5347388,61.171908 64.7241478,61.2151154 66.1919531,57.5597759 C66.3569785,57.1488262 66.4131923,56.7036308 66.3645394,56.2648364 C66.183406,54.628079 65.3904952,50.1588416 62.0120775,47.1512919 C61.5939255,46.7790689 61.0547988,46.561432 60.4883871,46.5444691 L58.6468091,46.4890997 L60.9062102,44.5540518 C61.7997141,44.342816 67.0525834,42.4973832 67.0525834,42.4973832 C67.6015722,42.3351157 68,41.8505536 68,41.2776565" id="Fill-149" fill="#F8B09C"></path>
                <path d="M68,41.2776565 C68,40.5719369 67.3954549,40 66.6495533,40 C66.484528,40 66.3267348,40.029445 66.1804474,40.0809737 L60.8690631,40.9963288 C59.2184807,40.7809323 54.1812621,44.0355639 52.5727578,45.5439795 C52.5727578,45.5439795 49.5796184,46.6651296 45,54.4434077 C45,54.4434077 55.7782606,54.0807863 56.9429715,59.5780379 C57.087944,60.2626339 57.6609305,60.7840023 58.371986,60.8800186 C60.5347388,61.171908 64.7241478,61.2151154 66.1919531,57.5597759 C66.3569785,57.1488262 66.4131923,56.7036308 66.3645394,56.2648364 C66.183406,54.628079 65.3904952,50.1588416 62.0120775,47.1512919 C61.5939255,46.7790689 61.0547988,46.561432 60.4883871,46.5444691 L58.6468091,46.4890997 L60.9062102,44.5540518 C61.7997141,44.342816 67.0525834,42.4973832 67.0525834,42.4973832 C67.6015722,42.3351157 68,41.8505536 68,41.2776565 Z" id="Stroke-151" stroke="#F69B86" stroke-width="2"></path>
                <path d="M84,51.8741883 C84,51.8741883 82.88427,53.6187437 82,52.7645102 L82.2081809,51" id="Fill-153" fill="#EC5E23"></path>
                <path d="M63,65 C63,65 63.9560553,67.088133 65,68 L63,67.4559805" id="Fill-155" fill="#58AC8A"></path>
                <g id="pistachio-logo" transform="translate(65.000000, 119.000000)" fill-rule="nonzero">
                    <path d="M1.17238257,0.158073058 L3.48131038,3.08020379 L5.77677674,0.146071798 C6.50372525,0.7908247 6.96262077,1.73673141 6.96262077,2.79094476 C6.96262077,4.73381556 5.40398502,6.30882353 3.48131038,6.30882353 C1.55863575,6.30882353 0,4.73381556 0,2.79094476 C0,1.74325354 0.453234962,0.802532973 1.17238257,0.158073058 Z" id="Combined-Shape" stroke="#1B853C" stroke-width="0.567567568" fill="#FFFFFF"></path>
                    <path d="M1.89189189,0.720483825 L3.41279492,2.92887876 L4.98948137,0.720483825 C4.56461449,0.337542474 4.04834958,0.146071798 3.44068663,0.146071798 C2.83302369,0.146071798 2.31675878,0.337542474 1.89189189,0.720483825 Z" id="Path" fill="#1B853C"></path>
                </g>
            </g>
            <g id="Group" transform="translate(27.000000, 137.139520) rotate(7.000000) translate(-27.000000, -137.139520) translate(24.000000, 133.639520)" fill-rule="nonzero">
                <path d="M1.0102942,0.0136317051 L3,3.33275212 L4.97810545,8.43769499e-15 C5.60454932,0.732346606 6,1.80676064 6,3.00419545 C6,5.21101737 4.65685425,7 3,7 C1.34314575,7 0,5.21101737 0,3.00419545 C0,1.81416884 0.390572726,0.74564552 1.0102942,0.0136317051 Z" id="Combined-Shape" stroke="#1B853C" stroke-width="0.692307692" fill="#FFFFFF" stroke-linecap="round" stroke-linejoin="round"></path>
                <path d="M1.61538462,0.677297955 L2.97506494,3.28125 L4.38461538,0.677297955 C4.00478634,0.225765985 3.54324788,0 3,0 C2.45675212,7.88295532e-17 1.99521366,0.225765985 1.61538462,0.677297955 Z" id="Path" fill="#1B853C"></path>
            </g>
        </g>
    </g>
</svg>